<?xml version="1.0" encoding="UTF-8"?>
<svg xmlns="http://www.w3.org/2000/svg" viewBox="0 0 512 512" width="512" height="512"><g id="outline"><path d="M479.2,174.941a52.466,52.466,0,0,0-41.674-13.8L390.522,166.4a80.068,80.068,0,0,0-43.6-40.681l1.994-47.258a52.53,52.53,0,0,0-70.808-51.441h0l-4.266,1.588a51.429,51.429,0,0,0-31.233,33.475L239.53,72.511l-3.6,1.957a50.863,50.863,0,0,0-19.767,19.17L202.5,80.886a26.028,26.028,0,0,0-36.748,1.272l-42.3,45.332a8,8,0,0,0,.392,11.307l50.48,47.1-2.957-.125a8,8,0,0,0-5.795,13.842l31.48,29.373L193.8,240H160.324l1.66-6.533a8,8,0,0,0-10.9-9.323l-26.822,11.5L99.58,220.065a8,8,0,0,0-12.237,7.491L88.476,240H62.624A24,24,0,1,0,32,254.624V470a26.03,26.03,0,0,0,26,26H342a26.03,26.03,0,0,0,26-26V366.605l24.912,23.244A8,8,0,0,0,398.37,392c.091,0,.184,0,.276,0a8,8,0,0,0,5.573-2.537l42.3-45.333a26,26,0,0,0-1.273-36.747l-13.668-12.752a50.862,50.862,0,0,0,17.757-21.045l1.7-3.725,10.187-3.792a51.433,51.433,0,0,0,31.234-33.475l1.289-4.365A52.243,52.243,0,0,0,479.2,174.941ZM103.453,266.232a8,8,0,0,0,2.852-6.877l-1.558-17.107,14.526,9.169a8,8,0,0,0,7.423.588l15.788-6.769-4.232,16.649a8,8,0,0,0,1.735,7.241L151.3,282.05l-17.141,1.12a8,8,0,0,0-6.35,3.888l-8.8,14.755-6.363-15.956A8,8,0,0,0,107,281.019l-16.751-3.805ZM40,240a8,8,0,1,1,8-8A8.009,8.009,0,0,1,40,240ZM160,480H58a10.011,10.011,0,0,1-10-10V408H160Zm0-88H48V344H160Zm0-64H48V256H89.933l.057.618L67.55,275.274a8,8,0,0,0,3.343,13.953L99.35,295.69,110.159,322.8a8,8,0,0,0,6.8,5.012q.318.025.634.025a8,8,0,0,0,6.87-3.9l14.94-25.067,20.6-1.346Zm0-60.305-5.205-5.945,1.462-5.75H160ZM341.01,140.583a63.961,63.961,0,0,1,35.1,32.746l-34.687,37.176-35.1-32.746ZM324.12,322.434a8.013,8.013,0,0,0,.089.94c.086.868.156,1.737.25,2.6l-19.286-18a8,8,0,0,0-8.249-1.648l-19.315,7.191,4.451-17.9q2.235-8.988,5.1-17.737a7.953,7.953,0,0,0,1.059-3.171,254.88,254.88,0,0,1,31.484-62.59l13.067,12.191A270.353,270.353,0,0,0,324.12,322.434ZM303.172,328H284.591l13.282-4.944Zm-44.79,0H240V254.781q2.917-1.064,5.8-2.191l1.349,1.259h0l23.8,22.207c-1.62,5.18-3.105,10.413-4.421,15.707l-8.111,32.622A7.987,7.987,0,0,0,258.382,328Zm3.5-82.294a270.357,270.357,0,0,0,28-15.144,270.008,270.008,0,0,0-13.17,28.982Zm-18.3-157.183,6.509-3.541a8,8,0,0,0,3.849-4.762l4.017-13.6a35.357,35.357,0,0,1,21.471-23.011l4.266-1.588h0a36.528,36.528,0,0,1,49.24,35.773l-2.12,50.271-13.357,14.315a91.425,91.425,0,0,1-18.007-65.132,8,8,0,1,0-15.908-1.713,107.363,107.363,0,0,0,21.689,77.223l1.148,1.5-11.75,12.593-58.276-54.374-8.038-7.5A34.918,34.918,0,0,1,243.578,88.523ZM140.61,132.556l36.839-39.482a10.011,10.011,0,0,1,14.134-.49l88.255,82.346a254.347,254.347,0,0,1-81.062,11.9ZM224,480H176V408h48Zm0-88H176V344h48Zm0-64H176V256h13.078l-.756,2.558a8,8,0,0,0,10.136,9.877L224,260.171Zm1.515-85.136-17.553,5.679,5.837-19.766a8,8,0,0,0-2.215-8.115l-19.286-18c.883.033,1.764.044,2.646.069a7.757,7.757,0,0,0,.889.023,270.431,270.431,0,0,0,97.309-15.415l13.066,12.191A255.024,255.024,0,0,1,225.515,242.864ZM352,470a10.011,10.011,0,0,1-10,10H240V408H352Zm0-78H240V344h80.32l9.033,8.429a8,8,0,0,0,13.408-6.739l-.189-1.69h1.2L352,351.676Zm82.328-72.923a10,10,0,0,1,.489,14.133l-36.839,39.483L366.4,343.224a8.043,8.043,0,0,0-2.07-1.93l-24.514-22.873a254.231,254.231,0,0,1,6.262-81.691ZM478.4,223.692l-1.289,4.366a35.352,35.352,0,0,1-21.471,23.011l-13.292,4.949a8,8,0,0,0-4.484,4.17l-3.082,6.737a34.923,34.923,0,0,1-15.351,16.369L353.117,221.42l11.75-12.592,1.571,1.042A107.327,107.327,0,0,0,425.9,227.857a108.617,108.617,0,0,0,19.081-1.694,8,8,0,1,0-2.81-15.751,91.418,91.418,0,0,1-66.221-13.458L389.3,182.639l50.005-5.594A36.529,36.529,0,0,1,478.4,223.692Z"/><path d="M152,48a24,24,0,1,0-24,24A24.027,24.027,0,0,0,152,48Zm-32,0a8,8,0,1,1,8,8A8.009,8.009,0,0,1,120,48Z"/><path d="M32,40a8,8,0,0,0,8,8A25.267,25.267,0,0,1,64,65.3l.411,1.232a8,8,0,1,0,15.178-5.062l-.41-1.23A41.245,41.245,0,0,0,40,32,8,8,0,0,0,32,40Z"/><path d="M114.763,197.443a33.7,33.7,0,0,0-35.624-.751,8,8,0,1,0,8.123,13.785,17.789,17.789,0,0,1,18.8.4l1.585,1.026a8,8,0,1,0,8.7-13.431Z"/><path d="M61.586,79.248a8,8,0,0,0-13.378,5.184l-2.6,29.213L20.067,128.064a8,8,0,0,0,.8,14.326l26.979,11.5,5.821,28.745a8,8,0,0,0,13.87,3.67L86.809,164.2l29.137,3.347a8,8,0,0,0,7.777-12.058l-15.067-25.163,12.187-26.677a8,8,0,0,0-9.064-11.122L83.192,99.082Zm31.182,55.69,8.9,14.864-17.211-1.977a8,8,0,0,0-6.942,2.69L66.128,163.573l-3.439-16.98a8,8,0,0,0-4.7-5.772l-15.938-6.794,15.087-8.517a8,8,0,0,0,4.035-6.257L62.707,102,75.47,113.712a8,8,0,0,0,7.2,1.905l16.887-3.871-7.2,15.758A8,8,0,0,0,92.768,134.938Z"/></g></svg>
