<svg id="Icons" height="512" viewBox="0 0 74 74" width="512" xmlns="http://www.w3.org/2000/svg"><path d="m58 72h-42a7.374 7.374 0 0 1 -7.324-8.236l5.288-44.964a1 1 0 0 1 .994-.884h44.084a1 1 0 0 1 .994.884l5.285 44.961a7.374 7.374 0 0 1 -7.321 8.239zm-42.153-52.081-5.182 44.081a5.374 5.374 0 0 0 5.335 6h42a5.374 5.374 0 0 0 5.338-6l-5.185-44.081z"/><path d="m49.246 27.267a1 1 0 0 1 -1-1v-11.021a11.246 11.246 0 0 0 -22.492 0v11.021a1 1 0 0 1 -2 0v-11.021a13.246 13.246 0 0 1 26.492 0v11.021a1 1 0 0 1 -1 1z"/><path d="m49.246 33.887a4.234 4.234 0 1 1 4.233-4.233 4.238 4.238 0 0 1 -4.233 4.233zm0-6.467a2.234 2.234 0 1 0 2.233 2.234 2.236 2.236 0 0 0 -2.233-2.234z"/><path d="m24.754 33.887a4.234 4.234 0 1 1 4.234-4.233 4.238 4.238 0 0 1 -4.234 4.233zm0-6.467a2.234 2.234 0 1 0 2.234 2.234 2.235 2.235 0 0 0 -2.234-2.234z"/><path d="m37 61.915a1 1 0 0 1 -.558-.171c-.4-.27-9.859-6.709-9.859-13.637a6.27 6.27 0 0 1 10.417-4.707 6.27 6.27 0 0 1 10.417 4.707c0 6.928-9.457 13.367-9.859 13.637a1 1 0 0 1 -.558.171zm-4.144-18.082a4.278 4.278 0 0 0 -4.273 4.274c0 5 6.455 10.133 8.417 11.579 1.962-1.446 8.417-6.582 8.417-11.579a4.269 4.269 0 0 0 -7.63-2.637 1.036 1.036 0 0 1 -1.574 0 4.244 4.244 0 0 0 -3.357-1.637z"/></svg>